<?xml version="1.0" encoding="UTF-8"?>
<svg width="84px" height="84px" viewBox="0 0 84 84" version="1.1" xmlns="http://www.w3.org/2000/svg" xmlns:xlink="http://www.w3.org/1999/xlink">
    <!-- Generator: Sketch 49 (51002) - http://www.bohemiancoding.com/sketch -->
    <title>ic-community</title>
    <desc>Created with Sketch.</desc>
    <defs></defs>
    <g id="Page-1" stroke="none" stroke-width="1" fill="none" fill-rule="evenodd">
        <g id="Home" transform="translate(-598.000000, -500.000000)">
            <g id="Section" transform="translate(170.000000, 500.000000)">
                <g id="Group-3" transform="translate(320.000000, 0.000000)">
                    <g id="ic-community" transform="translate(108.000000, 0.000000)">
                        <circle id="Oval" fill="#EA4335" cx="42" cy="42" r="42"></circle>
                        <g id="ic-group" transform="translate(17.000000, 19.000000)" fill="#FFFFFF" fill-rule="nonzero">
                            <path d="M27.2923656,25.4962019 C30.2553763,18.9761878 29.4704301,20.7033474 30.5387097,18.3523803 L30.5387097,15.8691362 L31.1037634,17.1108122 L32.6696774,13.6654554 C32.7041935,13.5877089 32.7536559,13.5224883 32.7941935,13.4487371 L30.6868817,8.81385915 C30.4110753,8.20171362 29.7869892,7.94029108 29.1555914,7.94029108 C28.3687097,7.94029108 23.7411828,7.94029108 23.2724731,7.94029108 C22.6386022,7.94029108 22.0147312,8.20171362 21.7387097,8.81385915 L21.2091398,9.98016432 C21.0723656,10.8785681 20.6902151,11.6866995 20.1307527,12.3502441 C20.1201075,12.3635258 20.1093548,12.3774554 20.0987097,12.3907371 C20.1036559,12.3916009 20.1069892,12.3916009 20.111828,12.3924648 C21.0204301,12.5785164 21.7593548,13.2320188 22.0748387,13.9245023 L25.0815054,20.5412676 C25.1416129,20.6105915 27.1810753,25.1198873 27.2923656,25.4962019 Z" id="XMLID_170_"></path>
                            <path d="M16.4684946,12.8358357 C18.4397849,12.8358357 20.0377419,11.2310188 20.0377419,9.25226291 C20.0377419,7.27102347 18.4397849,5.66793427 16.4684946,5.66793427 C14.4974194,5.66793427 12.8984946,7.27102347 12.8984946,9.25226291 C12.8983871,11.2309108 14.4973118,12.8358357 16.4684946,12.8358357 Z" id="XMLID_169_"></path>
                            <path d="M30.237957,31.3280516 L30.4102151,30.5091221 C29.7470968,30.699385 29.0032258,30.6505775 28.3565591,30.3527653 C27.6662366,30.0368122 27.1647312,29.4809249 26.8804301,28.8332535 L26.8804301,34.9529812 C26.8804301,35.9687606 27.7008602,36.7919014 28.7123656,36.7919014 C29.723871,36.7919014 30.5435484,35.9687606 30.5435484,34.9529812 L30.5435484,32.9989531 C30.233871,32.5019155 30.1136559,31.9105023 30.237957,31.3280516 Z" id="XMLID_168_"></path>
                            <path d="M22.1226882,27.4301455 L22.0427957,27.2540282 L22.0445161,27.3607136 L22.0427957,34.9908826 C22.0427957,36.1366714 22.9662366,36.7917934 23.7124731,36.7917934 C24.7248387,36.7917934 25.5444086,35.9686526 25.5444086,34.9528732 L25.5444086,28.8909155 C24.2436559,29.3328826 22.7008602,28.7033521 22.1226882,27.4301455 Z" id="XMLID_167_"></path>
                            <path d="M26.2124731,7.20655869 C28.1844086,7.20655869 29.7824731,5.60174178 29.7824731,3.62298592 C29.7824731,1.64185446 28.1844086,0.0387652582 26.2124731,0.0387652582 C24.242043,0.0387652582 22.6433333,1.64185446 22.6433333,3.62298592 C22.6432258,5.60174178 24.2419355,7.20655869 26.2124731,7.20655869 Z" id="XMLID_166_"></path>
                            <path d="M38.8854839,12.3592066 C40.9630108,12.3592066 42.9416129,10.6370141 42.9416129,8.28604695 C42.9416129,6.03604225 41.1251613,4.21375117 38.8854839,4.21375117 C36.6450538,4.21375117 34.8294624,6.03604225 34.8294624,8.28604695 C34.8294624,10.6320469 36.8022581,12.3592066 38.8854839,12.3592066 Z" id="XMLID_165_"></path>
                            <path d="M49.7530108,26.9091362 L43.9696774,14.1841972 C43.6836559,13.5538028 43.0675269,13.1922817 42.4225806,13.1799718 L35.3483871,13.1799718 C34.7034409,13.1922817 34.0873118,13.5546667 33.8012903,14.1841972 L28.0172043,26.9091362 C27.6194624,27.7843239 28.0032258,28.8175962 28.8754839,29.2170188 C29.7404301,29.6149296 30.7741935,29.2352676 31.1727957,28.3551127 L32.9777419,24.3845352 L31.4546237,31.5877465 C31.3194624,32.2214883 31.8013978,32.8244554 32.4511828,32.8244554 L33.9627957,32.8244554 L33.9627957,43.8884272 C33.9627957,45.0431784 34.8953763,45.9788357 36.0443011,45.9788357 C37.1943011,45.9788357 38.1267742,45.0431784 38.1267742,43.8884272 L38.1267742,32.8244554 L39.644086,32.8244554 L39.644086,43.8884272 C39.644086,45.0431784 40.5758065,45.9788357 41.7256989,45.9788357 C42.8749462,45.9788357 43.8072043,45.0431784 43.8072043,43.8884272 L43.8072043,32.8244554 L45.3188172,32.8244554 C45.9694624,32.8244554 46.4505376,32.2214883 46.3162366,31.5877465 L44.7923656,24.3845352 L46.5970968,28.3551127 C46.9966667,29.2353756 48.0304301,29.6150376 48.8953763,29.2170188 C49.7669892,28.8174883 50.1508602,27.7843239 49.7530108,26.9091362 Z" id="XMLID_164_"></path>
                            <path d="M5.77322581,25.1213991 L7.70892473,20.8613239 L10.8622581,13.9235305 C11.2090323,13.1565399 11.8944086,12.6147981 12.6950538,12.4104977 L12.6950538,12.2152676 C12.1167742,11.4765681 11.7552688,10.52277 11.6875269,9.52847887 L6.11666667,9.52847887 C5.52849462,9.522 4.98086022,9.76592958 4.73032258,10.3184695 L0.124731183,20.4509953 C-0.191505376,21.148338 0.114086022,21.970615 0.807741935,22.2882958 C1.50860215,22.6099718 2.32354839,22.2940188 2.63806452,21.602507 L4.86462366,16.703723 C4.86462366,17.1022817 4.85978495,23.1649953 4.85978495,33.9718638 C4.85978495,34.890784 5.60182796,35.6361784 6.51709677,35.6361784 C7.43311828,35.6361784 8.1744086,34.890784 8.1744086,33.9718638 L8.1744086,29.0416573 C7.82268817,29.0324789 7.47172043,28.9581878 7.14064516,28.8058263 C5.76247312,28.174784 5.13150538,26.5293662 5.77322581,25.1213991 Z" id="XMLID_163_"></path>
                            <path d="M9.38365591,28.7977277 L9.38365591,33.9719718 C9.38365591,34.8380892 10.0508602,35.5270094 10.8934409,35.6056197 L10.8934409,27.2557559 L10.8127957,27.4311174 C10.5270968,28.0631315 9.99903226,28.5320939 9.38365591,28.7977277 Z" id="XMLID_162_"></path>
                            <path d="M8.77989247,8.86428638 C10.5632258,8.86428638 12.0097849,7.41247887 12.0097849,5.62161033 C12.0097849,3.82987793 10.5632258,2.37893427 8.77989247,2.37893427 C6.99483871,2.37893427 5.54924731,3.82987793 5.54924731,5.62161033 C5.54924731,7.41247887 6.99483871,8.86428638 8.77989247,8.86428638 Z" id="XMLID_161_"></path>
                            <path d="M20.9422581,14.4430282 C20.6653763,13.8317465 20.0422581,13.5695681 19.4109677,13.5695681 C18.8898925,13.5695681 14.2549462,13.5695681 13.526129,13.5695681 C12.8929032,13.5695681 12.2706452,13.8301268 11.994086,14.4430282 L6.90419355,25.6401408 C6.55494624,26.409507 6.89268817,27.3193568 7.65946237,27.6700798 C8.42064516,28.0210188 9.33010753,27.6875728 9.68107527,26.9124836 L12.1424731,21.4984131 L12.1374194,40.5820423 C12.1374194,41.5978216 12.9570968,42.4209624 13.9686022,42.4209624 C14.9809677,42.4209624 15.8005376,41.5978216 15.8005376,40.5820423 L15.8005376,29.6190329 L17.1365591,29.6190329 L17.1365591,40.5820423 C17.1365591,41.5978216 17.9569892,42.4209624 18.9687097,42.4209624 C19.9802151,42.4209624 20.7996774,41.5978216 20.7996774,40.5820423 L20.7948387,21.5007887 L23.2553763,26.9124836 C23.6070968,27.6875728 24.5155914,28.0210188 25.2766667,27.6700798 C26.0445161,27.3193568 26.3821505,26.409507 26.0321505,25.6401408 L20.9422581,14.4430282 Z" id="XMLID_160_"></path>
                        </g>
                    </g>
                </g>
            </g>
        </g>
    </g>
</svg>