<?xml version="1.0" encoding="UTF-8"?>
<svg width="84px" height="84px" viewBox="0 0 84 84" version="1.1" xmlns="http://www.w3.org/2000/svg" xmlns:xlink="http://www.w3.org/1999/xlink">
    <!-- Generator: Sketch 49 (51002) - http://www.bohemiancoding.com/sketch -->
    <title>ic-opportunities</title>
    <desc>Created with Sketch.</desc>
    <defs></defs>
    <g id="Page-1" stroke="none" stroke-width="1" fill="none" fill-rule="evenodd">
        <g id="Home" transform="translate(-918.000000, -500.000000)">
            <g id="Section" transform="translate(170.000000, 500.000000)">
                <g id="Group-3" transform="translate(640.000000, 0.000000)">
                    <g id="ic-opportunities" transform="translate(108.000000, 0.000000)">
                        <circle id="Oval" fill="#FABB04" cx="42" cy="42" r="42"></circle>
                        <path d="M46.0598723,55.9856748 L37.9276789,55.9856748 C37.3577267,55.9856748 36.895776,56.4456748 36.895776,57.0131942 C36.895776,57.5806019 37.3577267,58.0404903 37.9276789,58.0404903 L46.0598723,58.0404903 C46.6299367,58.0404903 47.0918874,57.5806019 47.0918874,57.0131942 C47.0918874,56.4456748 46.6299367,55.9856748 46.0598723,55.9856748 Z M45.8743743,59.4063107 L38.1134012,59.4063107 C37.543449,59.4063107 37.0814983,59.8664223 37.0814983,60.4337184 C37.0814983,61.0012379 37.543449,61.4611262 38.1134012,61.4611262 L45.8743743,61.4611262 C46.4443265,61.4611262 46.9062772,61.0012379 46.9062772,60.4337184 C46.9062772,59.8664223 46.4443265,59.4063107 45.8743743,59.4063107 Z M38.166673,62.7793835 C40.1758612,64.6285388 40.3827801,65 41.1847732,65 L42.7295434,65 C43.51348,65 43.7068286,64.6556699 45.8208782,62.7793835 L38.166673,62.7793835 Z M53.7421152,38.1624612 C53.7421152,45.1188447 47.7329434,49.0171214 47.7329434,54.5067524 L44.9964549,54.5067524 C44.9988101,47.7408447 50.9563923,44.1772961 50.9563923,38.1624612 C50.9563923,26.9036262 33.0314953,26.8859854 33.0314953,38.1624612 C33.0314953,44.1718252 38.8857863,47.581966 39.0213771,54.5067524 L36.2548321,54.5067524 C36.2548321,49.0171214 30.2456603,45.1188447 30.2456603,38.1624612 C30.2455481,23.2120146 53.7421152,23.1968301 53.7421152,38.1624612 Z M43.4807319,24.0367767 L40.6698871,24.0367767 L40.6698871,19 L43.4807319,19 L43.4807319,24.0367767 Z M53.1325736,21.6762621 L50.6558272,20.3532039 L48.182221,24.9423738 L50.6590796,26.265432 L53.1325736,21.6762621 Z M60.3204542,28.6066311 L58.6831593,26.3320874 L54.1860096,29.5408107 L55.8231923,31.8152427 L60.3204542,28.6066311 Z M60.8168353,46.2584612 L55.7571353,44.2177136 L54.7019049,46.8112427 L59.7617171,48.8518786 L60.8168353,46.2584612 Z M62.5,36.3677913 L56.7662715,36.3677913 L56.7662715,39.1659757 L62.5,39.1659757 L62.5,36.3677913 Z M35.817779,24.9423738 L33.3441728,20.3532039 L30.8674264,21.6762621 L33.3409204,26.265432 L35.817779,24.9423738 Z M29.8141026,29.5408107 L25.3167286,26.3320874 L23.6794337,28.6066311 L28.1766955,31.8152427 L29.8141026,29.5408107 Z M29.3468808,46.5665049 L28.1941911,44.0145097 L23.134379,46.2791165 L24.2868444,48.8311117 L29.3468808,46.5665049 Z M27.2339528,36.3677913 L21.5,36.3677913 L21.5,39.1659757 L27.2339528,39.1659757 L27.2339528,36.3677913 Z" id="light-bulb-18-icon" fill="#FFFFFF" fill-rule="nonzero"></path>
                    </g>
                </g>
            </g>
        </g>
    </g>
</svg>