<?xml version="1.0" encoding="UTF-8"?>
<svg width="84px" height="84px" viewBox="0 0 84 84" version="1.1" xmlns="http://www.w3.org/2000/svg" xmlns:xlink="http://www.w3.org/1999/xlink">
    <!-- Generator: Sketch 49 (51002) - http://www.bohemiancoding.com/sketch -->
    <title>ic-tech</title>
    <desc>Created with Sketch.</desc>
    <defs></defs>
    <g id="Page-1" stroke="none" stroke-width="1" fill="none" fill-rule="evenodd">
        <g id="Home" transform="translate(-278.000000, -500.000000)">
            <g id="Section" transform="translate(170.000000, 500.000000)">
                <g id="Group-3">
                    <g id="ic-tech" transform="translate(108.000000, 0.000000)">
                        <circle id="Oval" fill="#4B8BF4" cx="42" cy="42" r="42"></circle>
                        <g id="ic-code" transform="translate(16.000000, 19.000000)" fill="#FFFFFF" fill-rule="nonzero">
                            <g id="Group" transform="translate(10.274194, 15.825688)">
                                <polygon id="Shape" points="11.4506935 11.9201193 11.4506935 15.111211 0.175709677 10.1944862 0.175709677 7.46487156 11.4506935 2.54709174 11.4506935 5.7616055 3.5945 8.80731193"></polygon>
                                <path d="M18.421,2.47956881 L15.2817097,15.4836422 C15.1783387,15.9124128 15.0865,16.2521376 15.0085,16.4992294 C14.9305,16.7475872 14.8114032,16.9406606 14.6499516,17.0786606 C14.4885,17.2198257 14.2555484,17.2875596 13.9487903,17.2875596 C13.1885,17.2875596 12.805629,16.9554312 12.805629,16.2953945 C12.805629,16.122578 12.8804839,15.6906422 13.0301935,14.9985321 L16.1579516,1.99424771 C16.3212903,1.30340367 16.4783387,0.829899083 16.627,0.574366972 C16.7779677,0.317568807 17.0687903,0.190330275 17.5024032,0.190330275 C17.8766774,0.190330275 18.161629,0.280431193 18.3597742,0.461899083 C18.556871,0.642311927 18.6560484,0.891724771 18.6560484,1.20591743 C18.6562581,1.43844954 18.5772097,1.86278899 18.421,2.47956881 Z" id="Shape"></path>
                                <polygon id="Shape" points="31.2759032 10.1946972 20.0009194 15.134633 20.0009194 11.9424862 27.8793387 8.82988991 20.0009194 5.76287156 20.0009194 2.59309174 31.2759032 7.4863945"></polygon>
                            </g>
                            <path d="M48.8061935,0.0489541284 L3.19359677,0.0489541284 C1.47570968,0.0489541284 0.0836612903,1.45089908 0.0836612903,3.17843119 L0.0836612903,42.8217798 C0.0836612903,44.5495229 1.47570968,45.9512569 3.19359677,45.9512569 L48.8061935,45.9512569 C50.523871,45.9512569 51.9159194,44.5493119 51.9159194,42.8217798 L51.9159194,3.17843119 C51.9159194,1.44963303 50.5240806,0.0489541284 48.8061935,0.0489541284 Z M41.0311452,2.13520183 C42.1743065,2.13520183 43.1033871,3.07123853 43.1033871,4.2227156 C43.1033871,5.37313761 42.1743065,6.30917431 41.0311452,6.30917431 C39.8881935,6.30917431 38.9578548,5.37313761 38.9578548,4.2227156 C38.9580645,3.07123853 39.8881935,2.13520183 41.0311452,2.13520183 Z M35.3293871,2.13520183 C36.4725484,2.13520183 37.4037258,3.07123853 37.4037258,4.2227156 C37.4037258,5.37313761 36.4727581,6.30917431 35.3293871,6.30917431 C34.1860161,6.30917431 33.2571452,5.37313761 33.2571452,4.2227156 C33.2571452,3.07123853 34.1862258,2.13520183 35.3293871,2.13520183 Z M48.8061935,42.8217798 L3.19359677,42.8217798 L3.19359677,8.39436697 L48.8061935,8.39436697 L48.8061935,42.8217798 Z M46.7331129,6.30917431 C45.5912097,6.30917431 44.6587742,5.37313761 44.6587742,4.2227156 C44.6587742,3.07123853 45.591,2.13520183 46.7331129,2.13520183 C47.8752258,2.13520183 48.8064032,3.07123853 48.8064032,4.2227156 C48.8061935,5.37313761 47.8752258,6.30917431 46.7331129,6.30917431 Z" id="Shape"></path>
                        </g>
                    </g>
                </g>
            </g>
        </g>
    </g>
</svg>